<svg width="48" height="48" viewBox="0 0 48 48" fill="none" xmlns="http://www.w3.org/2000/svg">
<path d="M0 24C0 10.7452 10.7452 0 24 0C37.2548 0 48 10.7452 48 24C48 37.2548 37.2548 48 24 48C10.7452 48 0 37.2548 0 24Z" fill="#F26798"/>
<path fill-rule="evenodd" clip-rule="evenodd" d="M36.8002 23.9825C36.8002 24.8481 36.7121 25.7125 36.539 26.5552C36.3702 27.3778 36.1202 28.1854 35.7927 28.9574C35.4727 29.7158 35.0758 30.4466 34.612 31.1281C34.1551 31.8054 33.6288 32.4407 33.0507 33.0199C32.4713 33.5966 31.8337 34.1214 31.1568 34.5802C30.4731 35.0408 29.7412 35.4371 28.9824 35.7586C28.2092 36.0844 27.3997 36.334 26.5778 36.5025C25.7341 36.6761 24.8665 36.7647 23.9996 36.7647C23.1321 36.7647 22.2645 36.6761 21.422 36.5025C20.5988 36.334 19.7894 36.0844 19.0169 35.7586C18.2581 35.4371 17.5255 35.0408 16.8418 34.5802C16.1649 34.1215 15.5273 33.5966 14.9492 33.0199C14.3704 32.4407 13.8441 31.8054 13.3866 31.1281C12.9253 30.4466 12.5278 29.7157 12.2065 28.9574C11.879 28.1854 11.6284 27.3777 11.459 26.5552C11.2877 25.7125 11.2002 24.8481 11.2002 23.9825C11.2002 23.1162 11.2877 22.2499 11.459 21.4091C11.6284 20.5865 11.879 19.7776 12.2066 19.0068C12.5278 18.2479 12.9254 17.5165 13.3866 16.8349C13.8441 16.1571 14.3705 15.5229 14.9492 14.9431C15.5274 14.3664 16.1649 13.8428 16.8418 13.3847C17.5256 12.9222 18.2582 12.5259 19.0169 12.2038C19.7895 11.8773 20.5988 11.6271 21.422 11.4598C22.2646 11.2876 23.1321 11.2002 23.9997 11.2002C24.8666 11.2002 25.7341 11.2876 26.5779 11.4598C27.3998 11.6271 28.2092 11.8774 28.9824 12.2038C29.7412 12.5258 30.4731 12.9222 31.1569 13.3847C31.8338 13.8428 32.4714 14.3664 33.0507 14.9431C33.6289 15.5229 34.1552 16.1571 34.6121 16.8349C35.0758 17.5165 35.4727 18.248 35.7927 19.0068C36.1202 19.7776 36.3702 20.5865 36.539 21.4091C36.7121 22.2499 36.8002 23.1162 36.8002 23.9825ZM19.3356 14.1093C16.2873 15.5467 14.0122 18.3515 13.3028 21.7318L13.3133 21.7319C13.6868 21.7354 18.2014 21.7771 23.3946 20.3993C21.5026 17.0427 19.4813 14.3034 19.3356 14.1093ZM13.0772 23.6342C13.2709 23.6417 18.6718 23.7627 24.3002 22.0801C24.6133 22.693 24.9128 23.3147 25.1872 23.935C25.0434 23.9762 24.8984 24.0187 24.7559 24.0661C18.8569 25.9709 15.8654 31.2704 15.8692 31.2761C14.1278 29.3431 13.0684 26.7866 13.0684 23.9825C13.0684 23.9015 13.0711 23.8224 13.0738 23.7425L13.0738 23.7425L13.0738 23.7425L13.0738 23.7425L13.0738 23.7425L13.0738 23.7425C13.075 23.7066 13.0762 23.6706 13.0772 23.6342ZM31.2188 15.7901C29.2942 14.0955 26.7673 13.0676 23.9996 13.0676C23.1114 13.0676 22.2495 13.175 21.4239 13.3735L21.4416 13.3973L21.4416 13.3973L21.4416 13.3973L21.4417 13.3973C21.7006 13.7436 23.6924 16.4076 25.5103 19.7408C29.6012 18.2094 31.1662 15.8687 31.2178 15.7915L31.2188 15.7901ZM25.9056 25.7522L25.9322 25.7437C27.4704 29.7357 28.1054 33.0785 28.2673 34.0322C26.9553 34.5895 25.5134 34.8973 23.9996 34.8973C21.4645 34.8973 19.1369 34.0278 17.2811 32.5867C17.3039 32.5373 19.4101 28.0126 25.8597 25.7675C25.8748 25.7619 25.8902 25.7571 25.9056 25.7522ZM30.1081 33.0349C32.5625 31.3809 34.3057 28.7546 34.792 25.7125C34.567 25.6401 31.5087 24.6733 27.9804 25.2382C29.4142 29.1727 29.9968 32.377 30.1081 33.0349ZM27.0779 22.9501C26.851 22.4177 26.6053 21.8879 26.3516 21.3673C30.6398 19.6185 32.3981 17.1101 32.4407 17.0492L32.4414 17.0483C33.9751 18.9076 34.9021 21.2824 34.9271 23.87C34.9241 23.8694 34.9197 23.8685 34.9141 23.8674C34.6272 23.8077 30.9974 23.0528 27.3142 23.5156C27.2373 23.3284 27.1586 23.1411 27.0779 22.9501Z" fill="white"/>
</svg>
