<svg width="48" height="48" viewBox="0 0 48 48" fill="none" xmlns="http://www.w3.org/2000/svg">
<circle cx="24" cy="24" r="24" fill="#333333"/>
<path d="M24.0002 29.8332C16.4752 29.8332 10.5835 27.2665 10.5835 23.9998C10.5835 20.7332 16.4752 18.1665 24.0002 18.1665C31.5252 18.1665 37.4168 20.7332 37.4168 23.9998C37.4168 27.2665 31.5252 29.8332 24.0002 29.8332ZM24.0002 19.3332C16.6502 19.3332 11.7502 21.7248 11.7502 23.9998C11.7502 26.2748 16.6502 28.6665 24.0002 28.6665C31.3502 28.6665 36.2502 26.2748 36.2502 23.9998C36.2502 21.7248 31.3502 19.3332 24.0002 19.3332Z" fill="#80DEEA"/>
<path d="M18.8084 36.0168C18.2251 36.0168 17.7584 35.9001 17.2918 35.6085C14.4334 33.9751 15.1918 27.6168 18.9251 21.0835C20.6751 18.0501 22.8334 15.4835 24.9334 13.8501C27.2084 12.1001 29.2501 11.5751 30.6501 12.3918C32.1084 13.2085 32.6334 15.2501 32.2834 18.1085C31.9334 20.7918 30.7668 23.9418 29.0168 26.9751C27.2668 30.0085 25.1084 32.5751 23.0084 34.2085C21.4918 35.3751 20.0334 36.0168 18.8084 36.0168ZM29.1918 13.1501C28.2584 13.1501 27.0334 13.6751 25.6918 14.7251C23.7084 16.3001 21.6668 18.7501 19.9751 21.6668C16.3001 28.0251 15.9501 33.5085 17.8751 34.6168C18.8668 35.2001 20.5001 34.6751 22.3084 33.2751C24.2918 31.7001 26.3334 29.2501 28.0251 26.3335C29.7168 23.4168 30.8251 20.4418 31.1751 17.9335C31.4668 15.6001 31.1168 13.9668 30.1251 13.3835C29.8334 13.2668 29.5418 13.1501 29.1918 13.1501Z" fill="#80DEEA"/>
<path d="M29.25 36.0167C26.3333 36.0167 22.1333 32.4584 18.9833 26.9167C15.1917 20.3834 14.4333 14.025 17.2917 12.3917C20.15 10.7584 25.2833 14.55 29.075 21.0834C30.825 24.1167 31.9917 27.2667 32.3417 29.95C32.75 32.8084 32.1667 34.7917 30.7083 35.6667C30.2417 35.9 29.775 36.0167 29.25 36.0167ZM17.875 13.3834C15.95 14.4917 16.3 19.975 19.975 26.3334C23.65 32.6917 28.2 35.725 30.125 34.6167C31.1167 34.0334 31.4667 32.4 31.175 30.0667C30.825 27.5584 29.7167 24.5834 28.025 21.6667C24.35 15.3084 19.8 12.275 17.875 13.3834Z" fill="#80DEEA"/>
<path d="M23.9998 26.3332C25.2885 26.3332 26.3332 25.2885 26.3332 23.9998C26.3332 22.7112 25.2885 21.6665 23.9998 21.6665C22.7112 21.6665 21.6665 22.7112 21.6665 23.9998C21.6665 25.2885 22.7112 26.3332 23.9998 26.3332Z" fill="#80DEEA"/>
</svg>
