<svg width="48" height="48" viewBox="0 0 48 48" fill="none" xmlns="http://www.w3.org/2000/svg">
<path d="M0 24C0 10.7452 10.7452 0 24 0C37.2548 0 48 10.7452 48 24C48 37.2548 37.2548 48 24 48C10.7452 48 0 37.2548 0 24Z" fill="#FF2BC2"/>
<path d="M2.3999 23.9999C2.3999 12.0706 12.0706 2.3999 23.9999 2.3999C35.9292 2.3999 45.5999 12.0706 45.5999 23.9999C45.5999 35.9292 35.9292 45.5999 23.9999 45.5999C12.0706 45.5999 2.3999 35.9292 2.3999 23.9999Z" fill="url(#paint0_radial)"/>
<path fill-rule="evenodd" clip-rule="evenodd" d="M24.7064 32.5063L20.1564 23.6826L24.4464 15.4439C24.5276 15.2977 24.4789 15.2002 24.3489 15.2002H21.7326C21.5721 15.2002 21.5226 15.2795 21.4431 15.4067L21.4401 15.4114C21.1711 15.9892 20.8985 16.5694 20.6252 17.151C19.8915 18.7122 19.1531 20.2836 18.4664 21.8464H18.4339C17.7169 20.2452 16.9648 18.6703 16.2099 17.0895C15.9382 16.5206 15.6661 15.9509 15.3952 15.3789C15.3464 15.2327 15.2652 15.2002 15.1027 15.2002H12.3077C12.194 15.2002 12.0965 15.3139 12.194 15.4439L16.5002 23.9589L12.0477 32.5225C11.9665 32.62 11.9827 32.75 12.1452 32.75H14.8427C14.9727 32.75 15.0539 32.7013 15.1352 32.5713C16.1752 30.4263 17.2477 28.0538 18.2227 25.8764H18.2552C19.3439 28.1838 20.4001 30.4101 21.4401 32.555C21.5214 32.7175 21.6026 32.7663 21.7814 32.7663H24.6089C24.7389 32.7663 24.7876 32.6363 24.7064 32.5063ZM25.6976 26.3151C25.6976 22.5289 28.1351 19.5714 32.1325 19.5714C32.4738 19.5714 32.6525 19.5714 32.9775 19.6039V15.3789C32.9775 15.2814 33.0588 15.2164 33.14 15.2164H35.7563C35.8863 15.2164 35.9188 15.2652 35.9188 15.3464V30.1988C35.9188 30.6376 35.9188 31.1901 36 31.7913C36 31.905 36 31.9213 35.9025 31.97C34.5375 32.62 33.1075 32.9125 31.7425 32.9125C28.2163 32.9125 25.6976 30.7351 25.6976 26.3151ZM32.9775 22.1551C32.7338 22.0414 32.425 21.9926 32.035 21.9926C29.9876 21.9926 28.6226 23.5689 28.6226 26.1851C28.6226 29.1751 30.0201 30.3776 31.84 30.3776C32.23 30.3776 32.6525 30.3288 32.9613 30.1988V22.1551H32.9775Z" fill="#FED7F0"/>
<defs>
<radialGradient id="paint0_radial" cx="0" cy="0" r="1" gradientUnits="userSpaceOnUse" gradientTransform="translate(19.623 16.7903) scale(28.1648)">
<stop stop-color="#0E0E17" stop-opacity="0.85"/>
<stop offset="0.767" stop-color="#0E0E17"/>
</radialGradient>
</defs>
</svg>
