<svg width="48" height="48" viewBox="0 0 48 48" fill="none" xmlns="http://www.w3.org/2000/svg">
<path d="M0 24C0 10.7452 10.7452 0 24 0C37.2548 0 48 10.7452 48 24C48 37.2548 37.2548 48 24 48C10.7452 48 0 37.2548 0 24Z" fill="white"/>
<path d="M13.5173 37.1212L11.2002 11.2002H36.6611L34.3415 37.1172L23.915 40.0002L13.5173 37.1212Z" fill="#E44D26"/>
<path d="M23.9307 37.7045L32.378 35.3805L34.3654 13.2871H23.9307V37.7045Z" fill="#F16529"/>
<path d="M23.9304 22.8429H19.7454L19.4564 19.5921H23.9304V16.4175H23.9195H16L16.0757 17.2692L16.853 26.0175H23.9304V22.8429Z" fill="#EBEBEB"/>
<path d="M23.9304 31.2197L23.9167 31.2235L20.4193 30.2551L20.1958 27.687H18.4963H17.0435L17.4834 32.7429L23.916 34.574L23.9304 34.5699V31.2197Z" fill="#EBEBEB"/>
<path d="M23.9307 22.8867V26.0989H27.8001L27.4354 30.2648L23.9307 31.2318V34.5737L30.3727 32.7486L30.4199 32.2059L31.1583 23.7493L31.235 22.8867H30.3882H23.9307Z" fill="white"/>
<path d="M23.9307 16.4175V18.3617V19.5403V19.5479H31.5675V19.5479H31.5776L31.6411 18.8443L31.7854 17.2573L31.8611 16.4175H23.9307Z" fill="white"/>
</svg>
