<svg width="48" height="48" viewBox="0 0 48 48" fill="none" xmlns="http://www.w3.org/2000/svg">
<circle cx="24" cy="24" r="24" fill="white"/>
<path d="M33.2557 25.141C32.3585 25.1457 31.5815 25.3609 30.9305 25.6823C30.6925 25.2069 30.451 24.7887 30.4107 24.4777C30.3635 24.1149 30.3087 23.8979 30.3658 23.4657C30.423 23.0334 30.6732 22.4209 30.6697 22.3748C30.6662 22.3287 30.6137 22.1088 30.0963 22.1047C29.5789 22.1012 29.1362 22.2045 29.0842 22.341C29.0323 22.4775 28.9326 22.7849 28.8707 23.1057C28.7803 23.5747 27.8377 25.2483 27.3027 26.1233C27.1277 25.7815 26.979 25.4805 26.9481 25.2425C26.9008 24.8797 26.846 24.6627 26.9032 24.2304C26.9603 23.7982 27.2106 23.1857 27.2071 23.1396C27.2036 23.0935 27.1511 22.8736 26.6337 22.8695C26.1162 22.866 25.6735 22.9692 25.6216 23.1057C25.5697 23.2422 25.5137 23.5613 25.4081 23.8705C25.3019 24.1791 24.0495 26.9703 23.7211 27.6942C23.5537 28.0629 23.4084 28.3592 23.3057 28.5611C23.3052 28.5605 23.3052 28.5599 23.3052 28.5599C23.3052 28.5599 23.2987 28.5733 23.2882 28.5961C23.2002 28.7682 23.1482 28.8632 23.1482 28.8632C23.1482 28.8632 23.1488 28.8644 23.15 28.8667C23.08 28.9933 23.0053 29.1106 22.9686 29.1106C22.9429 29.1106 22.891 28.774 22.9797 28.312C23.1663 27.3437 23.6137 25.834 23.6097 25.7815C23.6073 25.7547 23.6931 25.4916 23.3174 25.3539C22.9522 25.2203 22.8222 25.4432 22.7889 25.4437C22.7568 25.4443 22.7329 25.5225 22.7329 25.5225C22.7329 25.5225 23.1395 23.8244 21.9571 23.8244C21.2174 23.8244 20.1931 24.6335 19.6885 25.3667C19.37 25.5406 18.6881 25.9127 17.9653 26.31C17.6877 26.4628 17.4042 26.6186 17.1352 26.7667C17.1172 26.7463 17.0985 26.7265 17.0798 26.7061C15.6454 25.176 12.9947 24.0939 13.1067 22.0365C13.1476 21.2887 13.4077 19.3193 18.201 16.9312C22.1274 14.9747 25.271 15.5131 25.8141 16.706C26.5899 18.4111 24.1341 21.5792 20.0566 22.0365C18.5032 22.2109 17.6847 21.6083 17.4812 21.3843C17.2671 21.1481 17.235 21.1376 17.1551 21.1819C17.025 21.2542 17.1072 21.4625 17.1551 21.5867C17.277 21.9035 17.7763 22.4652 18.628 22.7452C19.3776 22.9914 21.2017 23.1262 23.4072 22.2727C25.8782 21.3172 27.8073 18.6584 27.2403 16.4365C26.664 14.1767 22.9167 13.4335 19.37 14.6935C17.2566 15.4437 14.9717 16.6208 13.3284 18.1573C11.3748 19.9843 11.0633 21.5751 11.1917 22.2395C11.6478 24.6008 14.9022 26.1385 16.2054 27.2777C16.1412 27.3133 16.0806 27.3466 16.0257 27.3769C15.3724 27.7001 12.8915 28.9986 12.2708 30.37C11.5667 31.9257 12.3828 33.0422 12.923 33.1927C14.5966 33.6582 16.3139 32.8206 17.2373 31.4439C18.1602 30.0678 18.0476 28.2752 17.6241 27.4574C17.6188 27.4475 17.613 27.4376 17.6077 27.4271C17.7763 27.3273 17.9484 27.2258 18.1187 27.1255C18.4512 26.9301 18.7779 26.7481 19.0608 26.5941C18.9022 27.0281 18.7861 27.549 18.726 28.3009C18.6548 29.1841 19.0171 30.3257 19.4907 30.7748C19.6996 30.9726 19.9504 30.9772 20.1091 30.9772C20.6603 30.9772 20.9117 30.5187 21.1888 29.9762C21.5283 29.3112 21.8299 28.5366 21.8299 28.5366C21.8299 28.5366 21.4519 30.6284 22.4821 30.6284C22.8577 30.6284 23.2352 30.1413 23.4037 29.8934C23.4043 29.8963 23.4043 29.8975 23.4043 29.8975C23.4043 29.8975 23.4142 29.8812 23.4335 29.8491C23.4726 29.7896 23.4947 29.7517 23.4947 29.7517C23.4947 29.7517 23.4953 29.7476 23.4965 29.7406C23.6476 29.4787 23.9824 28.8813 24.4841 27.8961C25.1327 26.6232 25.7546 25.0284 25.7546 25.0284C25.7546 25.0284 25.8123 25.4181 26.0019 26.0632C26.1133 26.4424 26.3502 26.8618 26.5374 27.2643C26.3869 27.4732 26.2947 27.5927 26.2947 27.5927C26.2947 27.5927 26.2953 27.5951 26.2971 27.5992C26.1769 27.759 26.0422 27.9311 25.901 28.0991C25.3888 28.7087 24.7792 29.4052 24.6976 29.6058C24.6013 29.8427 24.6241 30.0165 24.8102 30.1571C24.9461 30.2592 25.1876 30.2755 25.4402 30.2586C25.9004 30.2277 26.2236 30.1133 26.3834 30.0439C26.6325 29.9558 26.9224 29.8176 27.1942 29.6175C27.6965 29.2482 27.9992 28.7203 27.9701 28.0203C27.9537 27.6347 27.8312 27.2527 27.6755 26.8922C27.721 26.8268 27.7665 26.7603 27.8126 26.6938C28.6042 25.5365 29.2184 24.2648 29.2184 24.2648C29.2184 24.2648 29.2762 24.6545 29.4657 25.2997C29.5614 25.6257 29.751 25.9822 29.9213 26.331C29.177 26.9359 28.7156 27.6388 28.5552 28.0997C28.2588 28.9525 28.491 29.3387 28.9262 29.4267C29.1233 29.4664 29.4022 29.376 29.6116 29.2873C29.8723 29.201 30.1856 29.0569 30.4784 28.8417C30.9807 28.4724 31.4637 27.9556 31.4345 27.2562C31.4211 26.9377 31.3347 26.6215 31.2175 26.3182C31.8487 26.0551 32.6653 25.9092 33.706 26.0306C35.9384 26.2913 36.3759 27.6849 36.2925 28.2682C36.2085 28.8516 35.7407 29.1724 35.5837 29.2692C35.4274 29.3661 35.3796 29.3999 35.3924 29.4717C35.4117 29.5761 35.484 29.5726 35.6176 29.5498C35.8013 29.5189 36.7895 29.0756 36.8321 27.9987C36.8852 26.6302 35.5756 25.1287 33.2557 25.141ZM16.0491 30.9417C15.3094 31.7484 14.2769 32.0529 13.8336 31.7962C13.3552 31.5192 13.5448 30.3315 14.4519 29.4752C15.0049 28.9537 15.7189 28.473 16.1926 28.1772C16.3005 28.1125 16.4586 28.0174 16.6511 27.9019C16.6832 27.8838 16.7012 27.8739 16.7012 27.8739L16.7007 27.8727C16.738 27.8506 16.7759 27.8278 16.815 27.8039C17.1457 29.0225 16.8255 30.0952 16.0491 30.9417ZM21.4362 27.2801C21.1789 27.9077 20.6399 29.5142 20.3115 29.4279C20.0297 29.3538 19.8582 28.1329 20.2555 26.9312C20.455 26.3263 20.882 25.6036 21.1328 25.323C21.5365 24.8715 21.981 24.7239 22.0889 24.9071C22.226 25.1404 21.5977 26.8863 21.4362 27.2801ZM25.8864 29.4034C25.7773 29.4606 25.677 29.4962 25.6309 29.4687C25.5965 29.4483 25.6758 29.3731 25.6758 29.3731C25.6758 29.3731 26.2323 28.774 26.4517 28.5016C26.5794 28.3429 26.727 28.1545 26.888 27.9445C26.8892 27.9655 26.8897 27.9865 26.8897 28.0069C26.8886 28.7244 26.1956 29.2086 25.8864 29.4034ZM29.3147 28.6217C29.233 28.564 29.247 28.3767 29.5147 27.7928C29.6197 27.5636 29.8601 27.178 30.2766 26.8093C30.325 26.961 30.3542 27.1062 30.3536 27.2416C30.3483 28.1446 29.7043 28.4817 29.3147 28.6217Z" fill="#F06292"/>
</svg>
