<svg width="48" height="48" viewBox="0 0 48 48" fill="none" xmlns="http://www.w3.org/2000/svg">
<circle cx="24" cy="24" r="24" fill="white"/>
<path d="M34.5 13.5H13.5V34.5H34.5V13.5Z" fill="#1976D2"/>
<path d="M26.0356 22.8335H18.2988V24.7375H21.0737V33.3335H23.2723V24.7375H26.0356V22.8335Z" fill="white"/>
<path d="M32.8633 25.2157C32.8633 25.2157 31.8209 24.5204 30.6426 24.5204C29.4642 24.5204 29.0401 25.0804 29.0401 25.6789C29.0401 27.2236 33.3457 27.069 33.3457 30.1776C33.3457 34.9661 26.7809 32.8422 26.7809 32.8422V30.5451C26.7809 30.5451 28.0362 31.4912 29.5418 31.4912C31.0474 31.4912 30.9902 30.5066 30.9902 30.3712C30.9902 28.9426 26.7231 28.9426 26.7231 25.7757C26.7231 21.4701 32.9403 23.1688 32.9403 23.1688L32.8633 25.2157Z" fill="white"/>
</svg>
