<svg width="48" height="48" viewBox="0 0 48 48" fill="none" xmlns="http://www.w3.org/2000/svg">
<path d="M24 48C37.2548 48 48 37.2548 48 24C48 10.7452 37.2548 0 24 0C10.7452 0 0 10.7452 0 24C0 37.2548 10.7452 48 24 48Z" fill="#DD4814"/>
<path fill-rule="evenodd" clip-rule="evenodd" d="M34.8005 11.8995C35.6571 10.4014 35.1497 8.48557 33.6671 7.62021C32.1857 6.75541 30.2898 7.2689 29.4331 8.76696C28.5776 10.265 29.0856 12.1814 30.5676 13.0462C32.0496 13.9122 33.9461 13.3981 34.8005 11.8995ZM8.7002 27.1328C10.4118 27.1328 11.7992 25.731 11.7992 24.0003C11.7992 22.2701 10.4113 20.8672 8.7002 20.8672C6.988 20.8672 5.6001 22.2701 5.6001 24.0003C5.6001 25.7304 6.988 27.1328 8.7002 27.1328ZM33.6671 40.3798C32.184 41.2452 30.2898 40.7317 29.4331 39.2336C28.5776 37.7355 29.0856 35.8203 30.5676 34.9543C32.0496 34.089 33.9449 34.6019 34.8005 36.1005C35.6571 37.5991 35.148 39.515 33.6671 40.3798ZM33.1149 23.2083C32.7192 18.6448 28.9297 15.0658 24.3107 15.0658C22.9812 15.0658 21.7192 15.3632 20.587 15.8962L18.4047 11.9344C20.1855 11.0421 22.1909 10.5407 24.3107 10.5407C25.5217 10.5407 26.693 10.7046 27.8077 11.01C28.0044 12.2829 28.7471 13.4583 29.9366 14.1523C31.1249 14.8463 32.5021 14.9093 33.6904 14.4457C35.9327 16.6945 37.3875 19.7451 37.6001 23.1378L33.1149 23.2083ZM15.4725 24.0003C15.4725 20.9772 16.9573 18.3055 19.2302 16.6888L16.9273 12.7981C14.2597 14.5987 12.272 17.3461 11.4341 20.5658C12.4262 21.3738 13.0612 22.6117 13.0612 24.0003C13.0612 25.3889 12.4262 26.6268 11.4341 27.4348C12.2726 30.655 14.2597 33.4018 16.9273 35.2031L19.2302 31.3123C16.9573 29.6957 15.4725 27.0233 15.4725 24.0003ZM20.587 32.1055C21.7192 32.6373 22.9812 32.9353 24.3107 32.9353C28.9297 32.9353 32.7192 29.3558 33.1149 24.7917L37.6001 24.8634C37.3875 28.2543 35.9327 31.3055 33.6904 33.5554C32.5021 33.0924 31.1249 33.1548 29.9366 33.8488C28.7471 34.5429 28.0044 35.7177 27.8077 36.9911C26.693 37.2971 25.5217 37.4605 24.3107 37.4605C22.1909 37.4605 20.1855 36.9596 18.4047 36.0673L20.587 32.1055Z" fill="white"/>
</svg>
